<mxfile host="65bd71144e">
    <diagram id="Av9oGati-Wc3leKfPzkD" name="Page-1">
        <mxGraphModel dx="835" dy="617" grid="1" gridSize="10" guides="1" tooltips="1" connect="1" arrows="1" fold="1" page="1" pageScale="1" pageWidth="850" pageHeight="1100" math="0" shadow="0">
            <root>
                <mxCell id="0"/>
                <mxCell id="1" parent="0"/>
            </root>
        </mxGraphModel>
    </diagram>
    <diagram id="Si56obl_TfBy6J5DmX5d" name="Page-2">
        <mxGraphModel dx="1055" dy="473" grid="1" gridSize="10" guides="1" tooltips="1" connect="1" arrows="1" fold="1" page="1" pageScale="1" pageWidth="850" pageHeight="1100" math="0" shadow="0">
            <root>
                <mxCell id="5OULd1rJCNaufMY1Bv5e-0"/>
                <mxCell id="5OULd1rJCNaufMY1Bv5e-1" parent="5OULd1rJCNaufMY1Bv5e-0"/>
            </root>
        </mxGraphModel>
    </diagram>
</mxfile>